<svg width="141" height="53" viewBox="0 0 141 53" fill="none" xmlns="http://www.w3.org/2000/svg">
<rect x="0.5" y="0.5" width="140" height="50" stroke="black"/>
<mask id="path-2-outside-1_2932_7649" maskUnits="userSpaceOnUse" x="12" y="40" width="124" height="13" fill="black">
<rect fill="white" x="12" y="40" width="124" height="13"/>
<path d="M15.736 51V44.184H13.048V42.6H20.368V44.184H17.68V51H15.736ZM24.774 51V42.6H28.362C29.53 42.6 30.438 42.872 31.086 43.416C31.734 43.952 32.058 44.696 32.058 45.648C32.058 46.272 31.91 46.812 31.614 47.268C31.318 47.716 30.898 48.06 30.354 48.3C29.81 48.54 29.162 48.66 28.41 48.66H25.854L26.718 47.808V51H24.774ZM30.114 51L28.014 47.952H30.09L32.214 51H30.114ZM26.718 48.024L25.854 47.112H28.302C28.902 47.112 29.35 46.984 29.646 46.728C29.942 46.464 30.09 46.104 30.09 45.648C30.09 45.184 29.942 44.824 29.646 44.568C29.35 44.312 28.902 44.184 28.302 44.184H25.854L26.718 43.26V48.024ZM35.8542 51L39.5982 42.6H41.5182L45.2742 51H43.2342L40.1622 43.584H40.9302L37.8462 51H35.8542ZM37.7262 49.2L38.2422 47.724H42.5622L43.0902 49.2H37.7262ZM51.5687 51L47.9447 42.6H50.0447L53.2127 50.04H51.9767L55.1927 42.6H57.1247L53.4887 51H51.5687ZM61.186 51V42.6H67.534V44.16H63.118V49.44H67.69V51H61.186ZM62.974 47.496V45.984H67.018V47.496H62.974ZM72.5968 51V42.6H74.5408V49.416H78.7528V51H72.5968ZM83.199 51V42.6H85.143V49.416H89.355V51H83.199ZM93.8012 51V42.6H95.7452V49.416H99.9572V51H93.8012ZM104.403 51V42.6H110.751V44.16H106.335V49.44H110.907V51H104.403ZM106.191 47.496V45.984H110.235V47.496H106.191ZM115.814 51V42.6H119.402C120.57 42.6 121.478 42.872 122.126 43.416C122.774 43.952 123.098 44.696 123.098 45.648C123.098 46.272 122.95 46.812 122.654 47.268C122.358 47.716 121.938 48.06 121.394 48.3C120.85 48.54 120.202 48.66 119.45 48.66H116.894L117.758 47.808V51H115.814ZM121.154 51L119.054 47.952H121.13L123.254 51H121.154ZM117.758 48.024L116.894 47.112H119.342C119.942 47.112 120.39 46.984 120.686 46.728C120.982 46.464 121.13 46.104 121.13 45.648C121.13 45.184 120.982 44.824 120.686 44.568C120.39 44.312 119.942 44.184 119.342 44.184H116.894L117.758 43.26V48.024ZM130.758 51.144C130.086 51.144 129.442 51.056 128.826 50.88C128.21 50.696 127.714 50.46 127.338 50.172L127.998 48.708C128.358 48.964 128.782 49.176 129.27 49.344C129.766 49.504 130.266 49.584 130.77 49.584C131.154 49.584 131.462 49.548 131.694 49.476C131.934 49.396 132.11 49.288 132.222 49.152C132.334 49.016 132.39 48.86 132.39 48.684C132.39 48.46 132.302 48.284 132.126 48.156C131.95 48.02 131.718 47.912 131.43 47.832C131.142 47.744 130.822 47.664 130.47 47.592C130.126 47.512 129.778 47.416 129.426 47.304C129.082 47.192 128.766 47.048 128.478 46.872C128.19 46.696 127.954 46.464 127.77 46.176C127.594 45.888 127.506 45.52 127.506 45.072C127.506 44.592 127.634 44.156 127.89 43.764C128.154 43.364 128.546 43.048 129.066 42.816C129.594 42.576 130.254 42.456 131.046 42.456C131.574 42.456 132.094 42.52 132.606 42.648C133.118 42.768 133.57 42.952 133.962 43.2L133.362 44.676C132.97 44.452 132.578 44.288 132.186 44.184C131.794 44.072 131.41 44.016 131.034 44.016C130.658 44.016 130.35 44.06 130.11 44.148C129.87 44.236 129.698 44.352 129.594 44.496C129.49 44.632 129.438 44.792 129.438 44.976C129.438 45.192 129.526 45.368 129.702 45.504C129.878 45.632 130.11 45.736 130.398 45.816C130.686 45.896 131.002 45.976 131.346 46.056C131.698 46.136 132.046 46.228 132.39 46.332C132.742 46.436 133.062 46.576 133.35 46.752C133.638 46.928 133.87 47.16 134.046 47.448C134.23 47.736 134.322 48.1 134.322 48.54C134.322 49.012 134.19 49.444 133.926 49.836C133.662 50.228 133.266 50.544 132.738 50.784C132.218 51.024 131.558 51.144 130.758 51.144Z"/>
</mask>
<path d="M15.736 51H14.736V52H15.736V51ZM15.736 44.184H16.736V43.184H15.736V44.184ZM13.048 44.184H12.048V45.184H13.048V44.184ZM13.048 42.6V41.6H12.048V42.6H13.048ZM20.368 42.6H21.368V41.6H20.368V42.6ZM20.368 44.184V45.184H21.368V44.184H20.368ZM17.68 44.184V43.184H16.68V44.184H17.68ZM17.68 51V52H18.68V51H17.68ZM15.736 51H16.736V44.184H15.736H14.736V51H15.736ZM15.736 44.184V43.184H13.048V44.184V45.184H15.736V44.184ZM13.048 44.184H14.048V42.6H13.048H12.048V44.184H13.048ZM13.048 42.6V43.6H20.368V42.6V41.6H13.048V42.6ZM20.368 42.6H19.368V44.184H20.368H21.368V42.6H20.368ZM20.368 44.184V43.184H17.68V44.184V45.184H20.368V44.184ZM17.68 44.184H16.68V51H17.68H18.68V44.184H17.68ZM17.68 51V50H15.736V51V52H17.68V51ZM24.774 51H23.774V52H24.774V51ZM24.774 42.6V41.6H23.774V42.6H24.774ZM31.086 43.416L30.443 44.1819L30.4486 44.1866L31.086 43.416ZM31.614 47.268L32.4483 47.8193L32.4527 47.8125L31.614 47.268ZM30.354 48.3L30.7576 49.2149H30.7576L30.354 48.3ZM25.854 48.66L25.1518 47.948L23.4157 49.66H25.854V48.66ZM26.718 47.808H27.718V45.4175L26.0158 47.096L26.718 47.808ZM26.718 51V52H27.718V51H26.718ZM30.114 51L29.2905 51.5674L29.5886 52H30.114V51ZM28.014 47.952V46.952H26.1106L27.1905 48.5194L28.014 47.952ZM30.09 47.952L30.9104 47.3803L30.612 46.952H30.09V47.952ZM32.214 51V52H34.1297L33.0344 50.4283L32.214 51ZM26.718 48.024L25.992 48.7117L27.718 50.5336V48.024H26.718ZM25.854 47.112V46.112H23.5291L25.128 47.7997L25.854 47.112ZM29.646 46.728L30.3001 47.4844L30.3059 47.4794L30.3116 47.4743L29.646 46.728ZM25.854 44.184L25.1235 43.501L23.5498 45.184H25.854V44.184ZM26.718 43.26H27.718V40.7264L25.9875 42.577L26.718 43.26ZM24.774 51H25.774V42.6H24.774H23.774V51H24.774ZM24.774 42.6V43.6H28.362V42.6V41.6H24.774V42.6ZM28.362 42.6V43.6C29.3838 43.6 30.0332 43.8379 30.443 44.1819L31.086 43.416L31.7289 42.6501C30.8427 41.9061 29.6761 41.6 28.362 41.6V42.6ZM31.086 43.416L30.4486 44.1866C30.8349 44.5061 31.058 44.9498 31.058 45.648H32.058H33.058C33.058 44.4422 32.6331 43.3979 31.7233 42.6454L31.086 43.416ZM32.058 45.648H31.058C31.058 46.108 30.9511 46.4526 30.7752 46.7235L31.614 47.268L32.4527 47.8125C32.8689 47.1714 33.058 46.436 33.058 45.648H32.058ZM31.614 47.268L30.7796 46.7167C30.6005 46.9878 30.3384 47.2139 29.9503 47.3851L30.354 48.3L30.7576 49.2149C31.4576 48.9061 32.0354 48.4442 32.4483 47.8193L31.614 47.268ZM30.354 48.3L29.9503 47.3851C29.5624 47.5562 29.0585 47.66 28.41 47.66V48.66V49.66C29.2654 49.66 30.0575 49.5238 30.7576 49.2149L30.354 48.3ZM28.41 48.66V47.66H25.854V48.66V49.66H28.41V48.66ZM25.854 48.66L26.5561 49.372L27.4201 48.52L26.718 47.808L26.0158 47.096L25.1518 47.948L25.854 48.66ZM26.718 47.808H25.718V51H26.718H27.718V47.808H26.718ZM26.718 51V50H24.774V51V52H26.718V51ZM30.114 51L30.9374 50.4326L28.8374 47.3846L28.014 47.952L27.1905 48.5194L29.2905 51.5674L30.114 51ZM28.014 47.952V48.952H30.09V47.952V46.952H28.014V47.952ZM30.09 47.952L29.2695 48.5237L31.3935 51.5717L32.214 51L33.0344 50.4283L30.9104 47.3803L30.09 47.952ZM32.214 51V50H30.114V51V52H32.214V51ZM26.718 48.024L27.4439 47.3363L26.5799 46.4243L25.854 47.112L25.128 47.7997L25.992 48.7117L26.718 48.024ZM25.854 47.112V48.112H28.302V47.112V46.112H25.854V47.112ZM28.302 47.112V48.112C29.0193 48.112 29.7471 47.9626 30.3001 47.4844L29.646 46.728L28.9918 45.9716C28.9528 46.0054 28.7846 46.112 28.302 46.112V47.112ZM29.646 46.728L30.3116 47.4743C30.8531 46.9913 31.09 46.3419 31.09 45.648H30.09H29.09C29.09 45.8661 29.0308 45.9367 28.9804 45.9817L29.646 46.728ZM30.09 45.648H31.09C31.09 44.9529 30.857 44.2932 30.3001 43.8116L29.646 44.568L28.9918 45.3244C29.027 45.3548 29.09 45.4151 29.09 45.648H30.09ZM29.646 44.568L30.3001 43.8116C29.7471 43.3334 29.0193 43.184 28.302 43.184V44.184V45.184C28.7846 45.184 28.9528 45.2906 28.9918 45.3244L29.646 44.568ZM28.302 44.184V43.184H25.854V44.184V45.184H28.302V44.184ZM25.854 44.184L26.5844 44.867L27.4484 43.943L26.718 43.26L25.9875 42.577L25.1235 43.501L25.854 44.184ZM26.718 43.26H25.718V48.024H26.718H27.718V43.26H26.718ZM35.8542 51L34.9408 50.5929L34.3136 52H35.8542V51ZM39.5982 42.6V41.6H38.9491L38.6848 42.1929L39.5982 42.6ZM41.5182 42.6L42.4311 42.1918L42.1665 41.6H41.5182V42.6ZM45.2742 51V52H46.8167L46.1871 50.5918L45.2742 51ZM43.2342 51L42.3103 51.3827L42.566 52H43.2342V51ZM40.1622 43.584V42.584H38.6655L39.2383 43.9667L40.1622 43.584ZM40.9302 43.584L41.8535 43.968L42.4291 42.584H40.9302V43.584ZM37.8462 51V52H38.5134L38.7695 51.384L37.8462 51ZM37.7262 49.2L36.7822 48.87L36.3172 50.2H37.7262V49.2ZM38.2422 47.724V46.724H37.5324L37.2982 47.394L38.2422 47.724ZM42.5622 47.724L43.5038 47.3872L43.2665 46.724H42.5622V47.724ZM43.0902 49.2V50.2H44.51L44.0318 48.8632L43.0902 49.2ZM35.8542 51L36.7676 51.4071L40.5116 43.0071L39.5982 42.6L38.6848 42.1929L34.9408 50.5929L35.8542 51ZM39.5982 42.6V43.6H41.5182V42.6V41.6H39.5982V42.6ZM41.5182 42.6L40.6053 43.0082L44.3613 51.4082L45.2742 51L46.1871 50.5918L42.4311 42.1918L41.5182 42.6ZM45.2742 51V50H43.2342V51V52H45.2742V51ZM43.2342 51L44.1581 50.6173L41.0861 43.2013L40.1622 43.584L39.2383 43.9667L42.3103 51.3827L43.2342 51ZM40.1622 43.584V44.584H40.9302V43.584V42.584H40.1622V43.584ZM40.9302 43.584L40.0068 43.2L36.9228 50.616L37.8462 51L38.7695 51.384L41.8535 43.968L40.9302 43.584ZM37.8462 51V50H35.8542V51V52H37.8462V51ZM37.7262 49.2L38.6702 49.53L39.1862 48.054L38.2422 47.724L37.2982 47.394L36.7822 48.87L37.7262 49.2ZM38.2422 47.724V48.724H42.5622V47.724V46.724H38.2422V47.724ZM42.5622 47.724L41.6206 48.0608L42.1486 49.5368L43.0902 49.2L44.0318 48.8632L43.5038 47.3872L42.5622 47.724ZM43.0902 49.2V48.2H37.7262V49.2V50.2H43.0902V49.2ZM51.5687 51L50.6505 51.3961L50.911 52H51.5687V51ZM47.9447 42.6V41.6H46.4241L47.0265 42.9961L47.9447 42.6ZM50.0447 42.6L50.9647 42.2082L50.7057 41.6H50.0447V42.6ZM53.2127 50.04V51.04H54.7253L54.1327 49.6482L53.2127 50.04ZM51.9767 50.04L51.0587 49.6432L50.455 51.04H51.9767V50.04ZM55.1927 42.6V41.6H54.5355L54.2747 42.2032L55.1927 42.6ZM57.1247 42.6L58.0424 42.9972L58.6472 41.6H57.1247V42.6ZM53.4887 51V52H54.1455L54.4064 51.3972L53.4887 51ZM51.5687 51L52.4868 50.6039L48.8628 42.2039L47.9447 42.6L47.0265 42.9961L50.6505 51.3961L51.5687 51ZM47.9447 42.6V43.6H50.0447V42.6V41.6H47.9447V42.6ZM50.0447 42.6L49.1246 42.9918L52.2926 50.4318L53.2127 50.04L54.1327 49.6482L50.9647 42.2082L50.0447 42.6ZM53.2127 50.04V49.04H51.9767V50.04V51.04H53.2127V50.04ZM51.9767 50.04L52.8946 50.4368L56.1106 42.9968L55.1927 42.6L54.2747 42.2032L51.0587 49.6432L51.9767 50.04ZM55.1927 42.6V43.6H57.1247V42.6V41.6H55.1927V42.6ZM57.1247 42.6L56.2069 42.2028L52.5709 50.6028L53.4887 51L54.4064 51.3972L58.0424 42.9972L57.1247 42.6ZM53.4887 51V50H51.5687V51V52H53.4887V51ZM61.186 51H60.186V52H61.186V51ZM61.186 42.6V41.6H60.186V42.6H61.186ZM67.534 42.6H68.534V41.6H67.534V42.6ZM67.534 44.16V45.16H68.534V44.16H67.534ZM63.118 44.16V43.16H62.118V44.16H63.118ZM63.118 49.44H62.118V50.44H63.118V49.44ZM67.69 49.44H68.69V48.44H67.69V49.44ZM67.69 51V52H68.69V51H67.69ZM62.974 47.496H61.974V48.496H62.974V47.496ZM62.974 45.984V44.984H61.974V45.984H62.974ZM67.018 45.984H68.018V44.984H67.018V45.984ZM67.018 47.496V48.496H68.018V47.496H67.018ZM61.186 51H62.186V42.6H61.186H60.186V51H61.186ZM61.186 42.6V43.6H67.534V42.6V41.6H61.186V42.6ZM67.534 42.6H66.534V44.16H67.534H68.534V42.6H67.534ZM67.534 44.16V43.16H63.118V44.16V45.16H67.534V44.16ZM63.118 44.16H62.118V49.44H63.118H64.118V44.16H63.118ZM63.118 49.44V50.44H67.69V49.44V48.44H63.118V49.44ZM67.69 49.44H66.69V51H67.69H68.69V49.44H67.69ZM67.69 51V50H61.186V51V52H67.69V51ZM62.974 47.496H63.974V45.984H62.974H61.974V47.496H62.974ZM62.974 45.984V46.984H67.018V45.984V44.984H62.974V45.984ZM67.018 45.984H66.018V47.496H67.018H68.018V45.984H67.018ZM67.018 47.496V46.496H62.974V47.496V48.496H67.018V47.496ZM72.5968 51H71.5968V52H72.5968V51ZM72.5968 42.6V41.6H71.5968V42.6H72.5968ZM74.5408 42.6H75.5408V41.6H74.5408V42.6ZM74.5408 49.416H73.5408V50.416H74.5408V49.416ZM78.7528 49.416H79.7528V48.416H78.7528V49.416ZM78.7528 51V52H79.7528V51H78.7528ZM72.5968 51H73.5968V42.6H72.5968H71.5968V51H72.5968ZM72.5968 42.6V43.6H74.5408V42.6V41.6H72.5968V42.6ZM74.5408 42.6H73.5408V49.416H74.5408H75.5408V42.6H74.5408ZM74.5408 49.416V50.416H78.7528V49.416V48.416H74.5408V49.416ZM78.7528 49.416H77.7528V51H78.7528H79.7528V49.416H78.7528ZM78.7528 51V50H72.5968V51V52H78.7528V51ZM83.199 51H82.199V52H83.199V51ZM83.199 42.6V41.6H82.199V42.6H83.199ZM85.143 42.6H86.143V41.6H85.143V42.6ZM85.143 49.416H84.143V50.416H85.143V49.416ZM89.355 49.416H90.355V48.416H89.355V49.416ZM89.355 51V52H90.355V51H89.355ZM83.199 51H84.199V42.6H83.199H82.199V51H83.199ZM83.199 42.6V43.6H85.143V42.6V41.6H83.199V42.6ZM85.143 42.6H84.143V49.416H85.143H86.143V42.6H85.143ZM85.143 49.416V50.416H89.355V49.416V48.416H85.143V49.416ZM89.355 49.416H88.355V51H89.355H90.355V49.416H89.355ZM89.355 51V50H83.199V51V52H89.355V51ZM93.8012 51H92.8012V52H93.8012V51ZM93.8012 42.6V41.6H92.8012V42.6H93.8012ZM95.7452 42.6H96.7452V41.6H95.7452V42.6ZM95.7452 49.416H94.7452V50.416H95.7452V49.416ZM99.9572 49.416H100.957V48.416H99.9572V49.416ZM99.9572 51V52H100.957V51H99.9572ZM93.8012 51H94.8012V42.6H93.8012H92.8012V51H93.8012ZM93.8012 42.6V43.6H95.7452V42.6V41.6H93.8012V42.6ZM95.7452 42.6H94.7452V49.416H95.7452H96.7452V42.6H95.7452ZM95.7452 49.416V50.416H99.9572V49.416V48.416H95.7452V49.416ZM99.9572 49.416H98.9572V51H99.9572H100.957V49.416H99.9572ZM99.9572 51V50H93.8012V51V52H99.9572V51ZM104.403 51H103.403V52H104.403V51ZM104.403 42.6V41.6H103.403V42.6H104.403ZM110.751 42.6H111.751V41.6H110.751V42.6ZM110.751 44.16V45.16H111.751V44.16H110.751ZM106.335 44.16V43.16H105.335V44.16H106.335ZM106.335 49.44H105.335V50.44H106.335V49.44ZM110.907 49.44H111.907V48.44H110.907V49.44ZM110.907 51V52H111.907V51H110.907ZM106.191 47.496H105.191V48.496H106.191V47.496ZM106.191 45.984V44.984H105.191V45.984H106.191ZM110.235 45.984H111.235V44.984H110.235V45.984ZM110.235 47.496V48.496H111.235V47.496H110.235ZM104.403 51H105.403V42.6H104.403H103.403V51H104.403ZM104.403 42.6V43.6H110.751V42.6V41.6H104.403V42.6ZM110.751 42.6H109.751V44.16H110.751H111.751V42.6H110.751ZM110.751 44.16V43.16H106.335V44.16V45.16H110.751V44.16ZM106.335 44.16H105.335V49.44H106.335H107.335V44.16H106.335ZM106.335 49.44V50.44H110.907V49.44V48.44H106.335V49.44ZM110.907 49.44H109.907V51H110.907H111.907V49.44H110.907ZM110.907 51V50H104.403V51V52H110.907V51ZM106.191 47.496H107.191V45.984H106.191H105.191V47.496H106.191ZM106.191 45.984V46.984H110.235V45.984V44.984H106.191V45.984ZM110.235 45.984H109.235V47.496H110.235H111.235V45.984H110.235ZM110.235 47.496V46.496H106.191V47.496V48.496H110.235V47.496ZM115.814 51H114.814V52H115.814V51ZM115.814 42.6V41.6H114.814V42.6H115.814ZM122.126 43.416L121.483 44.1819L121.489 44.1866L122.126 43.416ZM122.654 47.268L123.488 47.8193L123.493 47.8125L122.654 47.268ZM121.394 48.3L121.798 49.2149V49.2149L121.394 48.3ZM116.894 48.66L116.192 47.948L114.456 49.66H116.894V48.66ZM117.758 47.808H118.758V45.4175L117.056 47.096L117.758 47.808ZM117.758 51V52H118.758V51H117.758ZM121.154 51L120.331 51.5674L120.629 52H121.154V51ZM119.054 47.952V46.952H117.151L118.231 48.5194L119.054 47.952ZM121.13 47.952L121.951 47.3803L121.652 46.952H121.13V47.952ZM123.254 51V52H125.17L124.075 50.4283L123.254 51ZM117.758 48.024L117.032 48.7117L118.758 50.5336V48.024H117.758ZM116.894 47.112V46.112H114.569L116.168 47.7997L116.894 47.112ZM120.686 46.728L121.34 47.4844L121.346 47.4794L121.352 47.4743L120.686 46.728ZM116.894 44.184L116.164 43.501L114.59 45.184H116.894V44.184ZM117.758 43.26H118.758V40.7264L117.028 42.577L117.758 43.26ZM115.814 51H116.814V42.6H115.814H114.814V51H115.814ZM115.814 42.6V43.6H119.402V42.6V41.6H115.814V42.6ZM119.402 42.6V43.6C120.424 43.6 121.073 43.8379 121.483 44.1819L122.126 43.416L122.769 42.6501C121.883 41.9061 120.716 41.6 119.402 41.6V42.6ZM122.126 43.416L121.489 44.1866C121.875 44.5061 122.098 44.9498 122.098 45.648H123.098H124.098C124.098 44.4422 123.673 43.3979 122.763 42.6454L122.126 43.416ZM123.098 45.648H122.098C122.098 46.108 121.991 46.4526 121.815 46.7235L122.654 47.268L123.493 47.8125C123.909 47.1714 124.098 46.436 124.098 45.648H123.098ZM122.654 47.268L121.82 46.7167C121.641 46.9878 121.379 47.2139 120.99 47.3851L121.394 48.3L121.798 49.2149C122.498 48.9061 123.076 48.4442 123.488 47.8193L122.654 47.268ZM121.394 48.3L120.99 47.3851C120.603 47.5562 120.099 47.66 119.45 47.66V48.66V49.66C120.306 49.66 121.098 49.5238 121.798 49.2149L121.394 48.3ZM119.45 48.66V47.66H116.894V48.66V49.66H119.45V48.66ZM116.894 48.66L117.596 49.372L118.46 48.52L117.758 47.808L117.056 47.096L116.192 47.948L116.894 48.66ZM117.758 47.808H116.758V51H117.758H118.758V47.808H117.758ZM117.758 51V50H115.814V51V52H117.758V51ZM121.154 51L121.978 50.4326L119.878 47.3846L119.054 47.952L118.231 48.5194L120.331 51.5674L121.154 51ZM119.054 47.952V48.952H121.13V47.952V46.952H119.054V47.952ZM121.13 47.952L120.31 48.5237L122.434 51.5717L123.254 51L124.075 50.4283L121.951 47.3803L121.13 47.952ZM123.254 51V50H121.154V51V52H123.254V51ZM117.758 48.024L118.484 47.3363L117.62 46.4243L116.894 47.112L116.168 47.7997L117.032 48.7117L117.758 48.024ZM116.894 47.112V48.112H119.342V47.112V46.112H116.894V47.112ZM119.342 47.112V48.112C120.059 48.112 120.787 47.9626 121.34 47.4844L120.686 46.728L120.032 45.9716C119.993 46.0054 119.825 46.112 119.342 46.112V47.112ZM120.686 46.728L121.352 47.4743C121.893 46.9913 122.13 46.3419 122.13 45.648H121.13H120.13C120.13 45.8661 120.071 45.9367 120.021 45.9817L120.686 46.728ZM121.13 45.648H122.13C122.13 44.9529 121.897 44.2932 121.34 43.8116L120.686 44.568L120.032 45.3244C120.067 45.3548 120.13 45.4151 120.13 45.648H121.13ZM120.686 44.568L121.34 43.8116C120.787 43.3334 120.059 43.184 119.342 43.184V44.184V45.184C119.825 45.184 119.993 45.2906 120.032 45.3244L120.686 44.568ZM119.342 44.184V43.184H116.894V44.184V45.184H119.342V44.184ZM116.894 44.184L117.625 44.867L118.489 43.943L117.758 43.26L117.028 42.577L116.164 43.501L116.894 44.184ZM117.758 43.26H116.758V48.024H117.758H118.758V43.26H117.758ZM128.826 50.88L128.54 51.8382L128.552 51.8415L128.826 50.88ZM127.338 50.172L126.427 49.761L126.101 50.4838L126.73 50.9659L127.338 50.172ZM127.998 48.708L128.578 47.893L127.587 47.1881L127.087 48.297L127.998 48.708ZM129.27 49.344L128.945 50.2895L128.954 50.2927L128.963 50.2957L129.27 49.344ZM131.694 49.476L131.991 50.4311L132.001 50.428L132.011 50.4247L131.694 49.476ZM132.222 49.152L131.45 48.5163V48.5163L132.222 49.152ZM132.126 48.156L131.515 48.9473L131.526 48.9562L131.538 48.9647L132.126 48.156ZM131.43 47.832L131.138 48.7884L131.15 48.7921L131.163 48.7955L131.43 47.832ZM130.47 47.592L130.244 48.566L130.257 48.569L130.27 48.5717L130.47 47.592ZM129.426 47.304L129.117 48.2549L129.123 48.2569L129.426 47.304ZM128.478 46.872L127.957 47.7253V47.7253L128.478 46.872ZM127.77 46.176L126.917 46.6974L126.922 46.706L126.928 46.7144L127.77 46.176ZM127.89 43.764L127.056 43.2132L127.053 43.2172L127.89 43.764ZM129.066 42.816L129.474 43.7293L129.48 43.7264L129.066 42.816ZM132.606 42.648L132.364 43.6181L132.371 43.6199L132.378 43.6216L132.606 42.648ZM133.962 43.2L134.889 43.5766L135.204 42.802L134.497 42.3549L133.962 43.2ZM133.362 44.676L132.866 45.5442L133.858 46.1112L134.289 45.0526L133.362 44.676ZM132.186 44.184L131.912 45.1455L131.921 45.1481L131.93 45.1506L132.186 44.184ZM130.11 44.148L129.766 43.2091L129.766 43.2091L130.11 44.148ZM129.594 44.496L130.389 45.1034L130.397 45.0926L130.405 45.0815L129.594 44.496ZM129.702 45.504L129.091 46.2953L129.102 46.3042L129.114 46.3127L129.702 45.504ZM130.398 45.816L130.131 46.7795V46.7795L130.398 45.816ZM131.346 46.056L131.12 47.03L131.125 47.0311L131.346 46.056ZM132.39 46.332L132.101 47.2892L132.107 47.291L132.39 46.332ZM133.35 46.752L133.872 45.8987V45.8987L133.35 46.752ZM134.046 47.448L133.193 47.9694L133.198 47.978L133.204 47.9864L134.046 47.448ZM133.926 49.836L134.756 50.3946V50.3946L133.926 49.836ZM132.738 50.784L132.325 49.8736L132.319 49.876L132.738 50.784ZM130.758 51.144V50.144C130.175 50.144 129.623 50.0677 129.101 49.9185L128.826 50.88L128.552 51.8415C129.261 52.0443 129.998 52.144 130.758 52.144V51.144ZM128.826 50.88L129.113 49.9218C128.574 49.761 128.198 49.5711 127.946 49.3781L127.338 50.172L126.73 50.9659C127.23 51.3489 127.847 51.631 128.54 51.8382L128.826 50.88ZM127.338 50.172L128.25 50.583L128.91 49.119L127.998 48.708L127.087 48.297L126.427 49.761L127.338 50.172ZM127.998 48.708L127.419 49.523C127.869 49.8428 128.381 50.0955 128.945 50.2895L129.27 49.344L129.596 48.3985C129.184 48.2565 128.848 48.0852 128.578 47.893L127.998 48.708ZM129.27 49.344L128.963 50.2957C129.555 50.4866 130.159 50.584 130.77 50.584V49.584V48.584C130.374 48.584 129.978 48.5214 129.577 48.3923L129.27 49.344ZM130.77 49.584V50.584C131.204 50.584 131.624 50.5449 131.991 50.4311L131.694 49.476L131.398 48.5209C131.301 48.5511 131.105 48.584 130.77 48.584V49.584ZM131.694 49.476L132.011 50.4247C132.355 50.3098 132.722 50.1189 132.994 49.7877L132.222 49.152L131.45 48.5163C131.476 48.4855 131.493 48.4769 131.483 48.4827C131.473 48.489 131.441 48.5063 131.378 48.5273L131.694 49.476ZM132.222 49.152L132.994 49.7877C133.254 49.4729 133.39 49.0922 133.39 48.684H132.39H131.39C131.39 48.664 131.394 48.6321 131.407 48.5951C131.42 48.5582 131.438 48.5315 131.45 48.5163L132.222 49.152ZM132.39 48.684H133.39C133.39 48.1511 133.158 47.6699 132.715 47.3473L132.126 48.156L131.538 48.9647C131.511 48.9447 131.465 48.9012 131.43 48.8312C131.395 48.7622 131.39 48.7056 131.39 48.684H132.39ZM132.126 48.156L132.738 47.3647C132.431 47.1275 132.07 46.9719 131.698 46.8685L131.43 47.832L131.163 48.7955C131.366 48.8521 131.47 48.9125 131.515 48.9473L132.126 48.156ZM131.43 47.832L131.723 46.8756C131.399 46.7769 131.048 46.6895 130.671 46.6123L130.47 47.592L130.27 48.5717C130.597 48.6385 130.885 48.7111 131.138 48.7884L131.43 47.832ZM130.47 47.592L130.697 46.618C130.38 46.5443 130.057 46.4554 129.73 46.3511L129.426 47.304L129.123 48.2569C129.499 48.3766 129.873 48.4797 130.244 48.566L130.47 47.592ZM129.426 47.304L129.736 46.3531C129.461 46.2636 129.217 46.1512 129 46.0187L128.478 46.872L127.957 47.7253C128.316 47.9448 128.704 48.1204 129.117 48.2549L129.426 47.304ZM128.478 46.872L129 46.0187C128.843 45.9229 128.716 45.7993 128.613 45.6376L127.77 46.176L126.928 46.7144C127.192 47.1287 127.538 47.4691 127.957 47.7253L128.478 46.872ZM127.77 46.176L128.624 45.6546C128.57 45.567 128.506 45.3946 128.506 45.072H127.506H126.506C126.506 45.6454 126.619 46.209 126.917 46.6974L127.77 46.176ZM127.506 45.072H128.506C128.506 44.781 128.581 44.5359 128.728 44.3108L127.89 43.764L127.053 43.2172C126.688 43.7761 126.506 44.403 126.506 45.072H127.506ZM127.89 43.764L128.725 44.3148C128.866 44.1017 129.095 43.8984 129.474 43.7292L129.066 42.816L128.659 41.9028C127.998 42.1976 127.443 42.6263 127.056 43.2132L127.89 43.764ZM129.066 42.816L129.48 43.7264C129.84 43.5629 130.348 43.456 131.046 43.456V42.456V41.456C130.161 41.456 129.349 41.5891 128.653 41.9056L129.066 42.816ZM131.046 42.456V43.456C131.493 43.456 131.931 43.51 132.364 43.6181L132.606 42.648L132.849 41.6779C132.258 41.53 131.656 41.456 131.046 41.456V42.456ZM132.606 42.648L132.378 43.6216C132.796 43.7195 133.142 43.8641 133.428 44.0451L133.962 43.2L134.497 42.3549C133.999 42.0399 133.441 41.8165 132.835 41.6744L132.606 42.648ZM133.962 43.2L133.036 42.8234L132.436 44.2994L133.362 44.676L134.289 45.0526L134.889 43.5766L133.962 43.2ZM133.362 44.676L133.858 43.8078C133.4 43.5455 132.927 43.346 132.443 43.2174L132.186 44.184L131.93 45.1506C132.229 45.23 132.541 45.3585 132.866 45.5442L133.362 44.676ZM132.186 44.184L132.461 43.2225C131.987 43.0871 131.511 43.016 131.034 43.016V44.016V45.016C131.31 45.016 131.601 45.0569 131.912 45.1455L132.186 44.184ZM131.034 44.016V43.016C130.591 43.016 130.155 43.0664 129.766 43.2091L130.11 44.148L130.455 45.0869C130.545 45.0536 130.726 45.016 131.034 45.016V44.016ZM130.11 44.148L129.766 43.2091C129.417 43.337 129.045 43.5483 128.784 43.9105L129.594 44.496L130.405 45.0815C130.378 45.1194 130.356 45.1331 130.36 45.1301C130.366 45.1262 130.394 45.1092 130.455 45.0869L130.11 44.148ZM129.594 44.496L128.8 43.8885C128.552 44.2124 128.438 44.5899 128.438 44.976H129.438H130.438C130.438 44.9792 130.438 44.9984 130.428 45.0271C130.419 45.0566 130.404 45.0832 130.389 45.1034L129.594 44.496ZM129.438 44.976H128.438C128.438 45.5123 128.678 45.9765 129.091 46.2953L129.702 45.504L130.314 44.7127C130.329 44.7246 130.367 44.7597 130.399 44.8228C130.431 44.8868 130.438 44.9442 130.438 44.976H129.438ZM129.702 45.504L129.114 46.3127C129.416 46.532 129.768 46.6786 130.131 46.7795L130.398 45.816L130.666 44.8525C130.453 44.7934 130.341 44.732 130.291 44.6953L129.702 45.504ZM130.398 45.816L130.131 46.7795C130.435 46.8639 130.764 46.9474 131.12 47.03L131.346 46.056L131.573 45.082C131.24 45.0046 130.938 44.9281 130.666 44.8525L130.398 45.816ZM131.346 46.056L131.125 47.0311C131.454 47.106 131.779 47.192 132.101 47.2892L132.39 46.332L132.68 45.3748C132.313 45.264 131.943 45.166 131.568 45.0809L131.346 46.056ZM132.39 46.332L132.107 47.291C132.383 47.3724 132.621 47.4785 132.829 47.6053L133.35 46.752L133.872 45.8987C133.503 45.6735 133.102 45.4996 132.674 45.373L132.39 46.332ZM133.35 46.752L132.829 47.6053C132.982 47.6986 133.1 47.8168 133.193 47.9694L134.046 47.448L134.9 46.9265C134.641 46.5032 134.295 46.1574 133.872 45.8987L133.35 46.752ZM134.046 47.448L133.204 47.9864C133.259 48.0734 133.322 48.2366 133.322 48.54H134.322H135.322C135.322 47.9634 135.201 47.3986 134.889 46.9096L134.046 47.448ZM134.322 48.54H133.322C133.322 48.8127 133.25 49.0503 133.097 49.2774L133.926 49.836L134.756 50.3946C135.131 49.8377 135.322 49.2113 135.322 48.54H134.322ZM133.926 49.836L133.097 49.2774C132.957 49.4845 132.722 49.6928 132.325 49.8736L132.738 50.784L133.152 51.6944C133.81 51.3952 134.367 50.9715 134.756 50.3946L133.926 49.836ZM132.738 50.784L132.319 49.876C131.972 50.0363 131.467 50.144 130.758 50.144V51.144V52.144C131.649 52.144 132.465 52.0117 133.157 51.692L132.738 50.784Z" fill="white" mask="url(#path-2-outside-1_2932_7649)"/>
<path d="M140.5 0.5V16.3906C138.677 15.3678 136.569 14.7842 134.324 14.7842C127.418 14.7842 121.807 20.3103 121.807 27.1416C121.807 32.2399 124.932 36.61 129.389 38.5H114.262V28.459C114.261 20.9001 108.053 14.7842 100.409 14.7842C92.7652 14.7842 86.5569 20.9001 86.5566 28.459V38.5H84.3525V28.459C84.3523 20.9001 78.1439 14.7842 70.5 14.7842C62.8561 14.7842 56.6477 20.9001 56.6475 28.459V38.5H49.1025V26.3516C49.1025 18.7924 42.8941 12.6758 35.25 12.6758C27.6059 12.6758 21.3975 18.7924 21.3975 26.3516V38.5H13.8525V19.5L13.8477 19.1465C13.6619 11.9156 7.79447 6.08964 0.5 5.83398V0.5H140.5ZM133.522 19.4727C135.022 19.4727 136.227 20.6709 136.228 22.1348C136.228 23.5988 135.022 24.7969 133.522 24.7969C132.023 24.7967 130.818 23.5987 130.818 22.1348C130.819 20.671 132.023 19.4728 133.522 19.4727ZM52.875 8.45898C50.8353 8.45898 49.1709 10.0933 49.1709 12.1221C49.1711 14.1507 50.8355 15.7842 52.875 15.7842C54.9145 15.7842 56.5789 14.1507 56.5791 12.1221C56.5791 10.0933 54.9147 8.45898 52.875 8.45898Z" stroke="white"/>
</svg>
